<svg version="1.1" id="Layer_1" xmlns="http://www.w3.org/2000/svg" xmlns:xlink="http://www.w3.org/1999/xlink" x="0px" y="0px"
	 width="100%" viewBox="0 0 256 256" enable-background="new 0 0 256 256" xml:space="preserve">
<path fill="#1A2B34" opacity="1.000000" stroke="none" 
	d="
M257.000000,94.000000 
	C257.000000,148.666672 257.000000,202.833328 257.000000,257.000000 
	C171.666672,257.000000 86.333336,257.000000 1.000000,257.000000 
	C1.000000,171.666672 1.000000,86.333336 1.000000,1.000000 
	C86.333336,1.000000 171.666672,1.000000 257.000000,1.000000 
	C257.000000,31.833334 257.000000,62.666668 257.000000,94.000000 
M173.500000,224.000931 
	C155.339691,224.001022 137.179367,223.997467 119.019058,224.003067 
	C112.283119,224.005142 108.773506,225.724670 109.326927,229.111755 
	C110.229279,234.634445 114.795898,233.988861 118.769394,233.990387 
	C155.589798,234.004578 192.410217,233.998825 229.230621,233.998337 
	C230.063644,233.998322 230.896729,233.984238 231.729691,233.989868 
	C235.212296,234.013412 238.556473,233.041000 238.604126,229.123154 
	C238.656174,224.846634 235.121964,223.986725 231.479965,224.007065 
	C230.147171,224.014511 228.814255,224.001358 227.481400,224.001328 
	C209.820938,224.000809 192.160461,224.000946 173.500000,224.000931 
M118.699036,204.001251 
	C114.716423,204.061020 109.533630,203.420746 109.480103,208.949646 
	C109.426239,214.513672 114.597122,213.944351 118.593719,213.998367 
	C118.760330,214.000626 118.926994,213.998810 119.093628,213.998810 
	C155.753754,213.998810 192.413864,214.001068 229.073990,213.996750 
	C235.718536,213.995972 239.299469,212.177368 238.675079,208.794373 
	C237.664764,203.320404 233.097809,204.011810 229.133301,204.010147 
	C192.639816,203.994919 156.146332,204.001114 118.699036,204.001251 
M232.938675,193.955765 
	C236.284775,193.600647 239.062424,192.156509 238.591263,188.447845 
	C238.138107,184.880920 235.082520,183.953018 231.795807,184.010056 
	C231.130630,184.021606 230.464966,184.002136 229.799530,184.002136 
	C192.534058,184.001694 155.268585,184.002869 118.003113,184.000259 
	C114.077927,183.999985 109.336792,183.887589 109.458092,189.119614 
	C109.578033,194.292450 114.366745,193.999878 118.252129,193.999268 
	C156.183029,193.993240 194.113937,193.989319 232.938675,193.955765 
M142.484131,34.000286 
	C146.144424,33.990234 149.925888,34.530540 153.419067,33.761436 
	C155.478104,33.308090 158.238647,31.018467 158.629562,29.129570 
	C159.299530,25.892359 156.604797,24.197922 153.330063,24.032549 
	C152.168030,23.973867 151.001312,24.000860 149.836731,24.000820 
	C112.566681,23.999563 75.296631,23.999187 38.026577,24.002247 
	C36.695992,24.002356 35.039310,23.544554 34.103588,24.162180 
	C32.231071,25.398144 30.753229,27.232052 29.112438,28.819082 
	C30.799234,30.531204 32.289436,32.541622 34.252117,33.835144 
	C35.302803,34.527607 37.167263,33.998257 38.664478,33.998367 
	C72.939613,34.000835 107.214752,34.000278 142.484131,34.000286 
M123.500000,43.999271 
	C117.173523,43.999271 110.847054,43.996677 104.520576,43.999985 
	C97.861237,44.003464 91.171371,43.661636 84.561462,44.236576 
	C82.619492,44.405495 79.755867,46.928860 79.341385,48.817860 
	C78.635452,52.035183 81.262886,53.797832 84.564888,53.975739 
	C85.395172,54.020481 86.229271,53.999813 87.061623,53.999840 
	C118.360916,54.000790 149.660217,54.004730 180.959503,53.987957 
	C182.448669,53.987160 184.276993,54.303143 185.344925,53.580856 
	C186.832993,52.574402 188.739975,50.671654 188.660721,49.253498 
	C188.565216,47.544621 186.870926,45.517094 185.309525,44.432568 
	C184.146744,43.624908 182.095093,44.013847 180.439148,44.012058 
	C161.792786,43.991901 143.146393,43.999283 123.500000,43.999271 
M59.084084,169.401794 
	C59.762085,172.752411 61.967064,174.007690 65.210739,174.005951 
	C94.372200,173.990234 123.533661,173.992706 152.695129,174.002838 
	C156.142975,174.004028 158.826187,172.717163 158.821136,168.997055 
	C158.816101,165.282074 156.135849,163.995209 152.686569,163.996536 
	C123.525108,164.007782 94.363640,164.009232 65.202187,163.994873 
	C61.960594,163.993271 59.751251,165.246872 59.084084,169.401794 
M151.500000,134.000839 
	C164.801666,134.000504 178.103424,133.973572 191.404938,134.016632 
	C195.209229,134.028946 198.919189,133.484589 198.760529,128.761353 
	C198.614166,124.403786 195.005753,123.976707 191.418060,123.981743 
	C166.477478,124.016739 141.536789,124.015594 116.596191,123.983826 
	C112.792458,123.978981 109.081810,124.514206 109.239426,129.237488 
	C109.384850,133.595215 112.992531,134.035141 116.580818,134.018845 
	C127.887009,133.967468 139.193573,134.000488 151.500000,134.000839 
M53.500183,63.999119 
	C47.349987,64.002769 41.199734,63.992428 35.049614,64.015785 
	C31.823128,64.028038 29.306435,65.381691 29.203291,68.793968 
	C29.090952,72.510582 31.680882,73.958809 35.130844,73.983345 
	C39.784836,74.016449 44.439205,74.000252 49.093410,74.000374 
	C66.712952,74.000847 84.332565,74.026894 101.951996,73.980988 
	C106.921173,73.968040 110.316597,70.917175 108.500015,67.860458 
	C107.358536,65.939720 104.173714,64.213898 101.870049,64.167557 
	C86.085320,63.849979 70.291191,63.999847 53.500183,63.999119 
M38.692215,234.001846 
	C56.488346,234.001251 74.284569,234.032608 92.080551,233.980179 
	C97.262367,233.964920 100.547600,230.525696 98.311455,227.294037 
	C97.091980,225.531738 94.032555,224.190994 91.770676,224.141708 
	C78.471451,223.851959 65.162727,223.995331 51.857201,223.999634 
	C46.036194,224.001526 40.171062,223.620056 34.418976,224.255127 
	C32.497837,224.467239 30.865759,227.297501 29.101551,228.930954 
	C30.820993,230.608673 32.407185,232.468231 34.325714,233.874298 
	C35.088985,234.433685 36.587952,233.989243 38.692215,234.001846 
M29.214254,190.167267 
	C31.308638,191.444183 33.386684,193.797668 35.499950,193.829742 
	C54.486221,194.117905 73.478699,193.984909 92.469315,194.010498 
	C95.868156,194.015076 98.698807,192.925751 98.808861,189.211319 
	C98.928375,185.177155 96.013832,183.987717 92.394768,183.991714 
	C73.404144,184.012680 54.413483,184.007446 35.422844,183.997696 
	C31.752937,183.995819 29.293951,185.356079 29.214254,190.167267 
M190.501114,24.000938 
	C185.337936,24.016394 180.104523,23.546404 175.044968,24.278269 
	C172.922058,24.585348 171.167267,27.437311 169.245117,29.132303 
	C171.089157,30.732586 172.815979,32.509754 174.834259,33.847061 
	C175.654160,34.390327 177.108093,33.995358 178.273544,33.995636 
	C195.429382,33.999706 212.585205,33.999043 229.741043,33.996891 
	C230.740265,33.996765 231.992737,34.355480 232.691437,33.891193 
	C234.826950,32.472107 236.749496,30.732527 238.754898,29.117624 
	C236.827896,27.427107 235.042389,25.516270 232.909348,24.146601 
	C231.959213,23.536484 230.309326,24.003443 228.977036,24.003084 
	C216.484924,23.999708 203.992813,24.000999 190.501114,24.000938 
M220.493805,173.999069 
	C224.491241,173.989624 228.489670,174.032074 232.485794,173.954742 
	C235.843887,173.889740 239.030396,172.429291 238.452820,168.920288 
	C238.141617,167.029678 234.818695,165.523758 232.679871,164.108322 
	C231.979507,163.644821 230.728409,164.003281 229.729172,164.003159 
	C212.573105,164.001038 195.417038,164.001038 178.260971,164.003189 
	C177.261734,164.003311 176.009445,163.644562 175.310486,164.108719 
	C173.174408,165.527222 171.251160,167.266220 169.245117,168.880524 
	C171.171539,170.571594 172.956390,172.483032 175.088989,173.853226 
	C176.038849,174.463486 177.688995,173.996536 179.021301,173.996857 
	C192.512970,174.000168 206.004623,173.998978 220.493805,173.999069 
M202.982132,93.993401 
	C206.458893,93.906036 209.315140,92.291504 208.635834,88.743172 
	C208.283005,86.900269 205.238434,84.267227 203.361206,84.226364 
	C187.070175,83.871796 170.764694,83.872971 154.474106,84.239258 
	C152.649567,84.280281 149.736053,87.017448 149.358887,88.909294 
	C148.713531,92.146278 151.406250,93.830025 154.684418,93.974052 
	C155.846603,94.025116 157.012375,94.000854 158.176498,94.000923 
	C172.812347,94.001724 187.448212,94.000679 202.982132,93.993401 
M208.089325,106.399040 
	C206.364105,105.600250 204.646378,104.127022 202.912521,104.107811 
	C186.918915,103.930496 170.922531,103.997765 154.926956,104.011055 
	C151.657715,104.013771 149.248047,105.468704 149.167587,108.882927 
	C149.087173,112.295792 151.393799,113.959793 154.689041,113.968384 
	C170.851059,114.010498 187.013901,114.070786 203.174896,113.936493 
	C207.420258,113.901222 209.661789,111.657417 208.089325,106.399040 
M73.866508,104.032494 
	C61.050457,104.022110 48.234375,104.024765 35.418381,103.992638 
	C31.998518,103.984062 29.261759,105.179527 29.183979,108.892578 
	C29.106291,112.601418 31.740568,113.997215 35.199558,113.997337 
	C47.682873,113.997780 60.171413,114.179565 72.644371,113.820297 
	C74.733971,113.760101 76.756012,111.354088 78.809273,110.032005 
	C77.447884,108.061440 76.086502,106.090874 73.866508,104.032494 
M69.308121,83.997978 
	C57.827122,84.001137 46.346100,83.991455 34.865143,84.015587 
	C31.591284,84.022469 28.909700,85.604546 29.320757,88.901573 
	C29.549030,90.732529 32.141613,93.663528 33.737736,93.709740 
	C47.202873,94.099548 60.688656,94.103310 74.154221,93.724739 
	C75.784187,93.678909 78.556107,90.684906 78.571213,89.036865 
	C78.586273,87.393692 75.977531,85.475670 74.163460,84.173782 
	C73.274406,83.535744 71.579163,84.021072 69.308121,83.997978 
M131.570892,63.997471 
	C129.741974,63.997784 127.911880,64.040169 126.084366,63.989594 
	C122.357468,63.886463 119.074997,64.849312 119.201340,69.209541 
	C119.317795,73.228714 122.496666,74.037453 126.010956,74.021851 
	C137.981827,73.968712 149.953232,73.970963 161.924149,74.019699 
	C165.653107,74.034882 168.931686,73.141815 168.798538,68.782295 
	C168.675812,64.763908 165.493362,63.956932 161.980667,63.977951 
	C152.171356,64.036636 142.361450,63.997803 131.570892,63.997471 
M35.024483,153.990234 
	C47.486702,153.991943 59.948933,153.984879 72.411133,154.000870 
	C76.016121,154.005493 78.930984,152.784012 78.784615,148.758453 
	C78.650002,145.056198 75.793098,143.987183 72.419121,143.994385 
	C60.123116,144.020660 47.826973,144.022919 35.530983,143.992844 
	C32.377125,143.985123 29.720823,144.933273 29.241072,148.321533 
	C28.758291,151.731186 30.888504,153.481659 35.024483,153.990234 
M132.092606,154.000092 
	C135.872574,154.098434 139.065079,152.929352 138.780899,148.598221 
	C138.518951,144.605698 135.241699,143.958817 131.772232,143.976440 
	C119.971062,144.036423 108.169243,144.032471 96.368004,143.979385 
	C92.723549,143.962997 89.259399,144.582947 89.218857,148.949966 
	C89.178329,153.315323 92.593323,154.035522 96.265778,154.019516 
	C107.900818,153.968765 119.536217,154.001236 132.092606,154.000092 
M118.497742,84.000359 
	C111.003975,84.004837 103.510178,83.996559 96.016464,84.019417 
	C92.506752,84.030121 89.329338,85.155991 89.379982,89.121841 
	C89.426285,92.747490 92.425957,93.966820 95.764122,93.972054 
	C107.920578,93.991104 120.077095,93.990967 132.233551,93.972214 
	C135.571518,93.967064 138.571945,92.749451 138.619995,89.124107 
	C138.672592,85.158134 135.495926,84.039551 131.985855,84.018600 
	C127.822777,83.993759 123.659492,84.004845 118.497742,84.000359 
M123.476837,113.999641 
	C126.307945,113.995216 129.139145,114.003868 131.970123,113.983025 
	C135.478409,113.957207 138.705887,112.848328 138.612625,108.892715 
	C138.520035,104.966454 135.232132,104.005707 131.748871,104.008064 
	C119.924767,104.016060 108.100662,104.017303 96.276566,104.006950 
	C92.796463,104.003899 89.451599,104.952011 89.395302,108.866089 
	C89.333824,113.140266 92.860771,113.998100 96.503998,113.994957 
	C105.163910,113.987465 113.823830,113.996986 123.476837,113.999641 
M40.601345,43.998131 
	C39.107159,43.998627 37.612049,44.033169 36.118961,43.992908 
	C32.412975,43.892979 29.108040,44.824894 29.213266,49.182667 
	C29.310234,53.198463 32.485977,54.038715 35.993641,54.017502 
	C44.792454,53.964287 53.591843,53.980968 62.390896,54.006474 
	C65.992714,54.016914 68.905907,52.819561 68.797356,48.804867 
	C68.697441,45.109413 65.877892,43.979057 62.491978,43.993538 
	C55.519222,44.023354 48.546234,43.999748 40.601345,43.998131 
M72.550217,123.996460 
	C70.222488,123.997276 67.894371,124.025543 65.567123,123.992561 
	C61.945103,123.941238 59.057980,125.195816 59.182262,129.213638 
	C59.296604,132.910126 62.104904,134.028091 65.503876,134.013687 
	C74.482094,133.975632 83.460663,133.979645 92.438927,134.011581 
	C96.064682,134.024490 98.945183,132.793625 98.817284,128.779694 
	C98.699532,125.083939 95.887291,123.962746 92.489304,123.986351 
	C86.171494,124.030243 79.853157,123.997368 72.550217,123.996460 
M176.429138,154.002502 
	C178.423187,154.001556 180.417633,153.975357 182.411224,154.005188 
	C186.025574,154.059265 188.922928,152.815002 188.809937,148.798782 
	C188.705902,145.100784 185.894791,143.976944 182.500290,143.989609 
	C173.527145,144.023071 164.553741,144.020035 155.580566,143.991028 
	C151.966400,143.979340 149.069672,145.190948 149.189972,149.209015 
	C149.300644,152.906342 152.114410,154.029968 155.507706,154.010574 
	C162.154358,153.972580 168.801376,154.001358 176.429138,154.002502 
M205.061234,44.043701 
	C201.725723,44.391140 198.960312,45.836189 199.401932,49.520157 
	C199.827591,53.070995 202.854034,54.002510 206.137192,53.994724 
	C214.590683,53.974670 223.044281,53.982647 231.497803,53.995251 
	C235.122330,54.000656 238.677643,53.142609 238.598541,48.911892 
	C238.519928,44.706955 234.912918,43.986050 231.315704,43.998108 
	C222.862259,44.026447 214.408646,44.011875 205.061234,44.043701 
M216.509323,153.999420 
	C221.837448,153.989944 227.166290,154.029984 232.493439,153.952988 
	C235.850693,153.904465 239.034149,152.423798 238.453476,148.916763 
	C238.140396,147.025848 234.807556,144.374054 232.714340,144.256729 
	C223.585434,143.745117 214.395035,143.744888 205.266296,144.258179 
	C203.178925,144.375549 199.851776,147.044693 199.546768,148.934998 
	C198.980728,152.442856 202.170471,153.883270 205.526062,153.957535 
	C208.854691,154.031235 212.185837,153.990173 216.509323,153.999420 
M50.256626,214.004761 
	C50.919781,214.003479 51.583199,213.989380 52.246044,214.003052 
	C55.800144,214.076355 58.825012,212.972229 58.786633,208.950607 
	C58.748234,204.926315 55.670876,203.957764 52.142799,203.986450 
	C46.506298,204.032272 40.869164,203.994751 35.232330,204.007065 
	C31.810083,204.014526 29.147165,205.368347 29.202278,209.073929 
	C29.257393,212.779388 31.987307,214.007782 35.384369,214.000351 
	C40.026463,213.990173 44.668598,214.002289 50.256626,214.004761 
M77.749863,214.003525 
	C83.071693,213.994095 88.449104,214.418457 93.686150,213.747391 
	C95.601532,213.501938 98.122658,210.873047 98.573792,208.917648 
	C98.854568,207.700623 95.877281,204.425278 94.184059,204.289108 
	C87.410728,203.744415 80.541641,203.745636 73.768852,204.295166 
	C72.089302,204.431442 69.660896,207.245483 69.401588,209.085800 
	C69.205887,210.474686 71.759880,212.472458 73.411850,213.798248 
	C74.137497,214.380630 75.663643,213.965591 77.749863,214.003525 
M235.431030,124.531410 
	C228.493362,124.380821 221.533722,123.878609 214.632462,124.310051 
	C212.746490,124.427948 211.035812,127.349663 209.244675,128.984650 
	C211.025574,130.629044 212.680634,133.492615 214.610703,133.691833 
	C220.676651,134.317902 226.865845,134.221756 232.963669,133.789566 
	C234.875534,133.654053 237.394165,131.938263 238.228104,130.250595 
	C238.797592,129.098114 236.927414,126.740067 235.431030,124.531410 
M232.051453,73.985382 
	C235.543335,73.927101 238.724258,72.793480 238.614288,68.872665 
	C238.505249,64.986015 235.253830,64.002289 231.789230,64.009201 
	C226.494370,64.019745 221.199295,63.989567 215.904648,64.024551 
	C212.405930,64.047661 209.285049,65.240501 209.378983,69.171822 
	C209.464630,72.756699 212.441162,73.956093 215.758270,73.973625 
	C220.887543,74.000748 226.017044,73.990067 232.051453,73.985382 
M37.640018,163.991776 
	C36.643009,163.997772 35.644630,163.972305 34.649239,164.015549 
	C31.366049,164.158142 29.073219,165.725433 29.165806,169.131897 
	C29.258352,172.536835 31.665178,173.978119 34.919670,173.991333 
	C38.075829,174.004166 41.405434,174.545578 44.325726,173.701828 
	C46.171791,173.168442 48.387409,170.632050 48.595867,168.786118 
	C48.753128,167.393539 46.253101,165.133331 44.450642,164.255341 
	C42.826363,163.464142 40.542786,164.026413 37.640018,163.991776 
M38.546638,123.991837 
	C37.219448,124.000153 35.889286,123.954567 34.565651,124.027435 
	C31.289465,124.207832 28.646757,125.955734 29.349770,129.170471 
	C29.763157,131.060822 32.526180,132.744888 34.591038,133.854095 
	C35.882229,134.547699 37.841423,134.036270 39.499481,134.000717 
	C43.391632,133.917267 48.021435,134.921524 48.840771,129.216019 
	C49.366058,125.558128 46.367744,124.012817 38.546638,123.991837 
M186.750366,63.995720 
	C186.087997,64.002365 185.424896,63.991390 184.763382,64.018639 
	C181.516464,64.152397 179.164749,65.632286 179.191269,69.036636 
	C179.217789,72.439270 181.599197,73.919464 184.839340,73.974915 
	C187.819031,74.025894 190.996292,74.599434 193.716858,73.753693 
	C195.746643,73.122688 197.187302,70.596680 198.890305,68.914566 
	C197.129913,67.286949 195.600571,65.179169 193.535187,64.185417 
	C191.916840,63.406754 189.634842,64.007393 186.750366,63.995720 
M220.115829,111.460648 
	C223.318604,114.058464 232.989609,115.330170 235.942200,113.015816 
	C237.331573,111.926765 238.866074,109.042755 238.343567,107.830154 
	C235.790863,101.905968 230.168961,104.416138 225.671661,104.085014 
	C222.373596,103.842194 219.860947,105.305077 219.279419,108.909599 
	C219.183319,109.505287 219.549438,110.175545 220.115829,111.460648 
M219.400711,87.881371 
	C220.297928,89.657089 221.005722,92.812202 222.125671,92.965996 
	C226.600815,93.580521 231.373169,94.025284 235.710205,93.064415 
	C239.682404,92.184380 239.733597,87.220253 236.234177,84.981369 
	C232.624100,82.671692 222.777542,83.985458 219.400711,87.881371 
z"/>
<path fill="#334650" opacity="1.000000" stroke="none" 
	d="
M174.000000,224.000931 
	C192.160461,224.000946 209.820938,224.000809 227.481400,224.001328 
	C228.814255,224.001358 230.147171,224.014511 231.479965,224.007065 
	C235.121964,223.986725 238.656174,224.846634 238.604126,229.123154 
	C238.556473,233.041000 235.212296,234.013412 231.729691,233.989868 
	C230.896729,233.984238 230.063644,233.998322 229.230621,233.998337 
	C192.410217,233.998825 155.589798,234.004578 118.769394,233.990387 
	C114.795898,233.988861 110.229279,234.634445 109.326927,229.111755 
	C108.773506,225.724670 112.283119,224.005142 119.019058,224.003067 
	C137.179367,223.997467 155.339691,224.001022 174.000000,224.000931 
z"/>
<path fill="#334650" opacity="1.000000" stroke="none" 
	d="
M119.175941,204.001160 
	C156.146332,204.001114 192.639816,203.994919 229.133301,204.010147 
	C233.097809,204.011810 237.664764,203.320404 238.675079,208.794373 
	C239.299469,212.177368 235.718536,213.995972 229.073990,213.996750 
	C192.413864,214.001068 155.753754,213.998810 119.093628,213.998810 
	C118.926994,213.998810 118.760330,214.000626 118.593719,213.998367 
	C114.597122,213.944351 109.426239,214.513672 109.480103,208.949646 
	C109.533630,203.420746 114.716423,204.061020 119.175941,204.001160 
z"/>
<path fill="#334650" opacity="1.000000" stroke="none" 
	d="
M232.491760,193.970276 
	C194.113937,193.989319 156.183029,193.993240 118.252129,193.999268 
	C114.366745,193.999878 109.578033,194.292450 109.458092,189.119614 
	C109.336792,183.887589 114.077927,183.999985 118.003113,184.000259 
	C155.268585,184.002869 192.534058,184.001694 229.799530,184.002136 
	C230.464966,184.002136 231.130630,184.021606 231.795807,184.010056 
	C235.082520,183.953018 238.138107,184.880920 238.591263,188.447845 
	C239.062424,192.156509 236.284775,193.600647 232.491760,193.970276 
z"/>
<path fill="#56B3B4" opacity="1.000000" stroke="none" 
	d="
M141.987000,34.000286 
	C107.214752,34.000278 72.939613,34.000835 38.664478,33.998367 
	C37.167263,33.998257 35.302803,34.527607 34.252117,33.835144 
	C32.289436,32.541622 30.799234,30.531204 29.112438,28.819084 
	C30.753229,27.232052 32.231071,25.398144 34.103588,24.162180 
	C35.039310,23.544554 36.695992,24.002356 38.026577,24.002247 
	C75.296631,23.999187 112.566681,23.999563 149.836731,24.000820 
	C151.001312,24.000860 152.168030,23.973867 153.330063,24.032549 
	C156.604797,24.197922 159.299530,25.892359 158.629562,29.129570 
	C158.238647,31.018467 155.478104,33.308090 153.419067,33.761436 
	C149.925888,34.530540 146.144424,33.990234 141.987000,34.000286 
z"/>
<path fill="#FABF47" opacity="1.000000" stroke="none" 
	d="
M124.000000,43.999271 
	C143.146393,43.999283 161.792786,43.991901 180.439148,44.012058 
	C182.095093,44.013847 184.146744,43.624908 185.309525,44.432568 
	C186.870926,45.517094 188.565216,47.544621 188.660721,49.253498 
	C188.739975,50.671654 186.832993,52.574402 185.344925,53.580856 
	C184.276993,54.303143 182.448669,53.987160 180.959503,53.987957 
	C149.660217,54.004730 118.360916,54.000790 87.061623,53.999840 
	C86.229271,53.999813 85.395172,54.020481 84.564888,53.975739 
	C81.262886,53.797832 78.635452,52.035183 79.341385,48.817860 
	C79.755867,46.928860 82.619492,44.405495 84.561462,44.236576 
	C91.171371,43.661636 97.861237,44.003464 104.520576,43.999985 
	C110.847054,43.996677 117.173523,43.999271 124.000000,43.999271 
z"/>
<path fill="#FABF47" opacity="1.000000" stroke="none" 
	d="
M59.083843,169.003326 
	C59.751251,165.246872 61.960594,163.993271 65.202187,163.994873 
	C94.363640,164.009232 123.525108,164.007782 152.686569,163.996536 
	C156.135849,163.995209 158.816101,165.282074 158.821136,168.997055 
	C158.826187,172.717163 156.142975,174.004028 152.695129,174.002838 
	C123.533661,173.992706 94.372200,173.990234 65.210739,174.005951 
	C61.967064,174.007690 59.762085,172.752411 59.083843,169.003326 
z"/>
<path fill="#56B2B4" opacity="1.000000" stroke="none" 
	d="
M151.000000,134.000839 
	C139.193573,134.000488 127.887009,133.967468 116.580818,134.018845 
	C112.992531,134.035141 109.384850,133.595215 109.239426,129.237488 
	C109.081810,124.514206 112.792458,123.978981 116.596191,123.983826 
	C141.536789,124.015594 166.477478,124.016739 191.418060,123.981743 
	C195.005753,123.976707 198.614166,124.403786 198.760529,128.761353 
	C198.919189,133.484589 195.209229,134.028946 191.404938,134.016632 
	C178.103424,133.973572 164.801666,134.000504 151.000000,134.000839 
z"/>
<path fill="#56B2B4" opacity="1.000000" stroke="none" 
	d="
M54.000137,63.999123 
	C70.291191,63.999847 86.085320,63.849979 101.870049,64.167557 
	C104.173714,64.213898 107.358536,65.939720 108.500015,67.860458 
	C110.316597,70.917175 106.921173,73.968040 101.951996,73.980988 
	C84.332565,74.026894 66.712952,74.000847 49.093410,74.000374 
	C44.439205,74.000252 39.784836,74.016449 35.130844,73.983345 
	C31.680882,73.958809 29.090952,72.510582 29.203291,68.793968 
	C29.306435,65.381691 31.823128,64.028038 35.049614,64.015785 
	C41.199734,63.992428 47.349987,64.002769 54.000137,63.999123 
z"/>
<path fill="#E95E5E" opacity="1.000000" stroke="none" 
	d="
M38.222103,234.001831 
	C36.587952,233.989243 35.088985,234.433685 34.325714,233.874298 
	C32.407185,232.468231 30.820993,230.608673 29.101547,228.930954 
	C30.865759,227.297501 32.497837,224.467239 34.418976,224.255127 
	C40.171062,223.620056 46.036194,224.001526 51.857201,223.999634 
	C65.162727,223.995331 78.471451,223.851959 91.770676,224.141708 
	C94.032555,224.190994 97.091980,225.531738 98.311455,227.294037 
	C100.547600,230.525696 97.262367,233.964920 92.080551,233.980179 
	C74.284569,234.032608 56.488346,234.001251 38.222103,234.001831 
z"/>
<path fill="#C593C5" opacity="1.000000" stroke="none" 
	d="
M29.151768,189.780121 
	C29.293951,185.356079 31.752937,183.995819 35.422844,183.997696 
	C54.413483,184.007446 73.404144,184.012680 92.394768,183.991714 
	C96.013832,183.987717 98.928375,185.177155 98.808861,189.211319 
	C98.698807,192.925751 95.868156,194.015076 92.469315,194.010498 
	C73.478699,193.984909 54.486221,194.117905 35.499950,193.829742 
	C33.386684,193.797668 31.308638,191.444183 29.151768,189.780121 
z"/>
<path fill="#334650" opacity="1.000000" stroke="none" 
	d="
M191.000916,24.000940 
	C203.992813,24.000999 216.484924,23.999708 228.977036,24.003084 
	C230.309326,24.003443 231.959213,23.536484 232.909348,24.146601 
	C235.042389,25.516270 236.827896,27.427107 238.754898,29.117624 
	C236.749496,30.732527 234.826950,32.472107 232.691437,33.891193 
	C231.992737,34.355480 230.740265,33.996765 229.741043,33.996891 
	C212.585205,33.999043 195.429382,33.999706 178.273544,33.995636 
	C177.108093,33.995358 175.654160,34.390327 174.834259,33.847061 
	C172.815979,32.509754 171.089157,30.732586 169.245117,29.132309 
	C171.167267,27.437311 172.922058,24.585348 175.044968,24.278269 
	C180.104523,23.546404 185.337936,24.016394 191.000916,24.000940 
z"/>
<path fill="#334650" opacity="1.000000" stroke="none" 
	d="
M219.995056,173.999069 
	C206.004623,173.998978 192.512970,174.000168 179.021301,173.996857 
	C177.688995,173.996536 176.038849,174.463486 175.088989,173.853226 
	C172.956390,172.483032 171.171539,170.571594 169.245117,168.880524 
	C171.251160,167.266220 173.174408,165.527222 175.310486,164.108719 
	C176.009445,163.644562 177.261734,164.003311 178.260971,164.003189 
	C195.417038,164.001038 212.573105,164.001038 229.729172,164.003159 
	C230.728409,164.003281 231.979507,163.644821 232.679871,164.108322 
	C234.818695,165.523758 238.141617,167.029678 238.452820,168.920288 
	C239.030396,172.429291 235.843887,173.889740 232.485794,173.954742 
	C228.489670,174.032074 224.491241,173.989624 219.995056,173.999069 
z"/>
<path fill="#E95E5E" opacity="1.000000" stroke="none" 
	d="
M202.533096,93.996750 
	C187.448212,94.000679 172.812347,94.001724 158.176498,94.000923 
	C157.012375,94.000854 155.846603,94.025116 154.684418,93.974052 
	C151.406250,93.830025 148.713531,92.146278 149.358887,88.909294 
	C149.736053,87.017448 152.649567,84.280281 154.474106,84.239258 
	C170.764694,83.872971 187.070175,83.871796 203.361206,84.226364 
	C205.238434,84.267227 208.283005,86.900269 208.635834,88.743172 
	C209.315140,92.291504 206.458893,93.906036 202.533096,93.996750 
z"/>
<path fill="#FABE47" opacity="1.000000" stroke="none" 
	d="
M208.286499,106.744415 
	C209.661789,111.657417 207.420258,113.901222 203.174896,113.936493 
	C187.013901,114.070786 170.851059,114.010498 154.689041,113.968384 
	C151.393799,113.959793 149.087173,112.295792 149.167587,108.882927 
	C149.248047,105.468704 151.657715,104.013771 154.926956,104.011055 
	C170.922531,103.997765 186.918915,103.930496 202.912521,104.107811 
	C204.646378,104.127022 206.364105,105.600250 208.286499,106.744415 
z"/>
<path fill="#C592C5" opacity="1.000000" stroke="none" 
	d="
M74.295815,104.076401 
	C76.086502,106.090874 77.447884,108.061440 78.809273,110.031998 
	C76.756012,111.354088 74.733971,113.760101 72.644371,113.820297 
	C60.171413,114.179565 47.682873,113.997780 35.199558,113.997337 
	C31.740568,113.997215 29.106291,112.601418 29.183979,108.892578 
	C29.261759,105.179527 31.998518,103.984062 35.418381,103.992638 
	C48.234375,104.024765 61.050457,104.022110 74.295815,104.076401 
z"/>
<path fill="#FABE47" opacity="1.000000" stroke="none" 
	d="
M69.778450,83.997986 
	C71.579163,84.021072 73.274406,83.535744 74.163460,84.173782 
	C75.977531,85.475670 78.586273,87.393692 78.571213,89.036865 
	C78.556107,90.684906 75.784187,93.678909 74.154221,93.724739 
	C60.688656,94.103310 47.202873,94.099548 33.737736,93.709740 
	C32.141613,93.663528 29.549030,90.732529 29.320757,88.901573 
	C28.909700,85.604546 31.591284,84.022469 34.865143,84.015587 
	C46.346100,83.991455 57.827122,84.001137 69.778450,83.997986 
z"/>
<path fill="#C592C5" opacity="1.000000" stroke="none" 
	d="
M132.061340,63.997471 
	C142.361450,63.997803 152.171356,64.036636 161.980667,63.977951 
	C165.493362,63.956932 168.675812,64.763908 168.798538,68.782295 
	C168.931686,73.141815 165.653107,74.034882 161.924149,74.019699 
	C149.953232,73.970963 137.981827,73.968712 126.010956,74.021851 
	C122.496666,74.037453 119.317795,73.228714 119.201340,69.209541 
	C119.074997,64.849312 122.357468,63.886463 126.084366,63.989594 
	C127.911880,64.040169 129.741974,63.997784 132.061340,63.997471 
z"/>
<path fill="#56B2B4" opacity="1.000000" stroke="none" 
	d="
M34.584427,153.972839 
	C30.888504,153.481659 28.758291,151.731186 29.241072,148.321533 
	C29.720823,144.933273 32.377125,143.985123 35.530983,143.992844 
	C47.826973,144.022919 60.123116,144.020660 72.419121,143.994385 
	C75.793098,143.987183 78.650002,145.056198 78.784615,148.758453 
	C78.930984,152.784012 76.016121,154.005493 72.411133,154.000870 
	C59.948933,153.984879 47.486702,153.991943 34.584427,153.972839 
z"/>
<path fill="#E95E5E" opacity="1.000000" stroke="none" 
	d="
M131.632050,154.000809 
	C119.536217,154.001236 107.900818,153.968765 96.265778,154.019516 
	C92.593323,154.035522 89.178329,153.315323 89.218857,148.949966 
	C89.259399,144.582947 92.723549,143.962997 96.368004,143.979385 
	C108.169243,144.032471 119.971062,144.036423 131.772232,143.976440 
	C135.241699,143.958817 138.518951,144.605698 138.780899,148.598221 
	C139.065079,152.929352 135.872574,154.098434 131.632050,154.000809 
z"/>
<path fill="#334650" opacity="1.000000" stroke="none" 
	d="
M118.997017,84.000359 
	C123.659492,84.004845 127.822777,83.993759 131.985855,84.018600 
	C135.495926,84.039551 138.672592,85.158134 138.619995,89.124107 
	C138.571945,92.749451 135.571518,93.967064 132.233551,93.972214 
	C120.077095,93.990967 107.920578,93.991104 95.764122,93.972054 
	C92.425957,93.966820 89.426285,92.747490 89.379982,89.121841 
	C89.329338,85.155991 92.506752,84.030121 96.016464,84.019417 
	C103.510178,83.996559 111.003975,84.004837 118.997017,84.000359 
z"/>
<path fill="#334650" opacity="1.000000" stroke="none" 
	d="
M122.980293,113.999634 
	C113.823830,113.996986 105.163910,113.987465 96.503998,113.994957 
	C92.860771,113.998100 89.333824,113.140266 89.395302,108.866089 
	C89.451599,104.952011 92.796463,104.003899 96.276566,104.006950 
	C108.100662,104.017303 119.924767,104.016060 131.748871,104.008064 
	C135.232132,104.005707 138.520035,104.966454 138.612625,108.892715 
	C138.705887,112.848328 135.478409,113.957207 131.970123,113.983025 
	C129.139145,114.003868 126.307945,113.995216 122.980293,113.999634 
z"/>
<path fill="#E95E5E" opacity="1.000000" stroke="none" 
	d="
M41.087341,43.998131 
	C48.546234,43.999748 55.519222,44.023354 62.491978,43.993538 
	C65.877892,43.979057 68.697441,45.109413 68.797356,48.804867 
	C68.905907,52.819561 65.992714,54.016914 62.390896,54.006474 
	C53.591843,53.980968 44.792454,53.964287 35.993641,54.017502 
	C32.485977,54.038715 29.310234,53.198463 29.213266,49.182667 
	C29.108040,44.824894 32.412975,43.892979 36.118961,43.992908 
	C37.612049,44.033169 39.107159,43.998627 41.087341,43.998131 
z"/>
<path fill="#F9BE47" opacity="1.000000" stroke="none" 
	d="
M73.042625,123.996460 
	C79.853157,123.997368 86.171494,124.030243 92.489304,123.986351 
	C95.887291,123.962746 98.699532,125.083939 98.817284,128.779694 
	C98.945183,132.793625 96.064682,134.024490 92.438927,134.011581 
	C83.460663,133.979645 74.482094,133.975632 65.503876,134.013687 
	C62.104904,134.028091 59.296604,132.910126 59.182262,129.213638 
	C59.057980,125.195816 61.945103,123.941238 65.567123,123.992561 
	C67.894371,124.025543 70.222488,123.997276 73.042625,123.996460 
z"/>
<path fill="#C592C5" opacity="1.000000" stroke="none" 
	d="
M175.938690,154.002502 
	C168.801376,154.001358 162.154358,153.972580 155.507706,154.010574 
	C152.114410,154.029968 149.300644,152.906342 149.189972,149.209015 
	C149.069672,145.190948 151.966400,143.979340 155.580566,143.991028 
	C164.553741,144.020035 173.527145,144.023071 182.500290,143.989609 
	C185.894791,143.976944 188.705902,145.100784 188.809937,148.798782 
	C188.922928,152.815002 186.025574,154.059265 182.411224,154.005188 
	C180.417633,153.975357 178.423187,154.001556 175.938690,154.002502 
z"/>
<path fill="#334650" opacity="1.000000" stroke="none" 
	d="
M205.508179,44.029182 
	C214.408646,44.011875 222.862259,44.026447 231.315704,43.998108 
	C234.912918,43.986050 238.519928,44.706955 238.598541,48.911892 
	C238.677643,53.142609 235.122330,54.000656 231.497803,53.995251 
	C223.044281,53.982647 214.590683,53.974670 206.137192,53.994724 
	C202.854034,54.002510 199.827591,53.070995 199.401932,49.520157 
	C198.960312,45.836189 201.725723,44.391140 205.508179,44.029182 
z"/>
<path fill="#334650" opacity="1.000000" stroke="none" 
	d="
M216.012604,153.999420 
	C212.185837,153.990173 208.854691,154.031235 205.526062,153.957535 
	C202.170471,153.883270 198.980728,152.442856 199.546768,148.934998 
	C199.851776,147.044693 203.178925,144.375549 205.266296,144.258179 
	C214.395035,143.744888 223.585434,143.745117 232.714340,144.256729 
	C234.807556,144.374054 238.140396,147.025848 238.453476,148.916763 
	C239.034149,152.423798 235.850693,153.904465 232.493439,153.952988 
	C227.166290,154.029984 221.837448,153.989944 216.012604,153.999420 
z"/>
<path fill="#55B1B2" opacity="1.000000" stroke="none" 
	d="
M49.783672,214.004807 
	C44.668598,214.002289 40.026463,213.990173 35.384369,214.000351 
	C31.987307,214.007782 29.257393,212.779388 29.202278,209.073929 
	C29.147165,205.368347 31.810083,204.014526 35.232330,204.007065 
	C40.869164,203.994751 46.506298,204.032272 52.142799,203.986450 
	C55.670876,203.957764 58.748234,204.926315 58.786633,208.950607 
	C58.825012,212.972229 55.800144,214.076355 52.246044,214.003052 
	C51.583199,213.989380 50.919781,214.003479 49.783672,214.004807 
z"/>
<path fill="#F9BE47" opacity="1.000000" stroke="none" 
	d="
M77.288094,214.003479 
	C75.663643,213.965591 74.137497,214.380630 73.411850,213.798248 
	C71.759880,212.472458 69.205887,210.474686 69.401588,209.085800 
	C69.660896,207.245483 72.089302,204.431442 73.768852,204.295166 
	C80.541641,203.745636 87.410728,203.744415 94.184059,204.289108 
	C95.877281,204.425278 98.854568,207.700623 98.573792,208.917648 
	C98.122658,210.873047 95.601532,213.501938 93.686150,213.747391 
	C88.449104,214.418457 83.071693,213.994095 77.288094,214.003479 
z"/>
<path fill="#334650" opacity="1.000000" stroke="none" 
	d="
M235.789520,124.726219 
	C236.927414,126.740067 238.797592,129.098114 238.228104,130.250595 
	C237.394165,131.938263 234.875534,133.654053 232.963669,133.789566 
	C226.865845,134.221756 220.676651,134.317902 214.610703,133.691833 
	C212.680634,133.492615 211.025574,130.629044 209.244690,128.984650 
	C211.035812,127.349663 212.746490,124.427948 214.632462,124.310051 
	C221.533722,123.878609 228.493362,124.380821 235.789520,124.726219 
z"/>
<path fill="#334650" opacity="1.000000" stroke="none" 
	d="
M231.598938,73.990395 
	C226.017044,73.990067 220.887543,74.000748 215.758270,73.973625 
	C212.441162,73.956093 209.464630,72.756699 209.378983,69.171822 
	C209.285049,65.240501 212.405930,64.047661 215.904648,64.024551 
	C221.199295,63.989567 226.494370,64.019745 231.789230,64.009201 
	C235.253830,64.002289 238.505249,64.986015 238.614288,68.872665 
	C238.724258,72.793480 235.543335,73.927101 231.598938,73.990395 
z"/>
<path fill="#C391C3" opacity="1.000000" stroke="none" 
	d="
M38.095001,163.991760 
	C40.542786,164.026413 42.826363,163.464142 44.450642,164.255341 
	C46.253101,165.133331 48.753128,167.393539 48.595867,168.786118 
	C48.387409,170.632050 46.171791,173.168442 44.325726,173.701828 
	C41.405434,174.545578 38.075829,174.004166 34.919670,173.991333 
	C31.665178,173.978119 29.258352,172.536835 29.165806,169.131897 
	C29.073219,165.725433 31.366049,164.158142 34.649239,164.015549 
	C35.644630,163.972305 36.643009,163.997772 38.095001,163.991760 
z"/>
<path fill="#E65D5D" opacity="1.000000" stroke="none" 
	d="
M38.998085,123.991837 
	C46.367744,124.012817 49.366058,125.558128 48.840771,129.216019 
	C48.021435,134.921524 43.391632,133.917267 39.499481,134.000717 
	C37.841423,134.036270 35.882229,134.547699 34.591038,133.854095 
	C32.526180,132.744888 29.763157,131.060822 29.349770,129.170471 
	C28.646757,125.955734 31.289465,124.207832 34.565651,124.027435 
	C35.889286,123.954567 37.219448,124.000153 38.998085,123.991837 
z"/>
<path fill="#55B1B2" opacity="1.000000" stroke="none" 
	d="
M187.199036,63.995476 
	C189.634842,64.007393 191.916840,63.406754 193.535187,64.185417 
	C195.600571,65.179169 197.129913,67.286949 198.890305,68.914566 
	C197.187302,70.596680 195.746643,73.122688 193.716858,73.753693 
	C190.996292,74.599434 187.819031,74.025894 184.839340,73.974915 
	C181.599197,73.919464 179.217789,72.439270 179.191269,69.036636 
	C179.164749,65.632286 181.516464,64.152397 184.763382,64.018639 
	C185.424896,63.991390 186.087997,64.002365 187.199036,63.995476 
z"/>
<path fill="#334650" opacity="1.000000" stroke="none" 
	d="
M219.908890,111.135994 
	C219.549438,110.175545 219.183319,109.505287 219.279419,108.909599 
	C219.860947,105.305077 222.373596,103.842194 225.671661,104.085014 
	C230.168961,104.416138 235.790863,101.905968 238.343567,107.830154 
	C238.866074,109.042755 237.331573,111.926765 235.942200,113.015816 
	C232.989609,115.330170 223.318604,114.058464 219.908890,111.135994 
z"/>
<path fill="#334650" opacity="1.000000" stroke="none" 
	d="
M219.552124,87.534164 
	C222.777542,83.985458 232.624100,82.671692 236.234177,84.981369 
	C239.733597,87.220253 239.682404,92.184380 235.710205,93.064415 
	C231.373169,94.025284 226.600815,93.580521 222.125671,92.965996 
	C221.005722,92.812202 220.297928,89.657089 219.552124,87.534164 
z"/>
</svg>